<svg width="24" height="24" viewBox="0 0 24 24" fill="none" xmlns="http://www.w3.org/2000/svg">
<path d="M14.829 6.34301L17.657 9.17201M18.223 4.08101L19.92 5.77801C20.0699 5.92803 20.1541 6.13143 20.1541 6.34351C20.1541 6.55559 20.0699 6.759 19.92 6.90901L8.46401 18.364L4.92901 19.071L5.63601 15.536L17.091 4.08001C17.1653 4.00563 17.2535 3.94662 17.3507 3.90636C17.4478 3.8661 17.5519 3.84538 17.657 3.84538C17.7621 3.84538 17.8662 3.8661 17.9634 3.90636C18.0605 3.94662 18.1487 4.00663 18.223 4.08101ZM4.80601 2.77601L4.42901 4.28401C4.42018 4.31902 4.40204 4.35098 4.37651 4.37651C4.35098 4.40204 4.31902 4.42018 4.28401 4.42901L2.77601 4.80601C2.57401 4.85601 2.57401 5.14401 2.77601 5.19401L4.28401 5.57101C4.31902 5.57984 4.35098 5.59799 4.37651 5.62351C4.40204 5.64904 4.42018 5.68101 4.42901 5.71601L4.80601 7.22401C4.85601 7.42601 5.14401 7.42601 5.19401 7.22401L5.57101 5.71601C5.57984 5.68101 5.59799 5.64904 5.62351 5.62351C5.64904 5.59799 5.68101 5.57984 5.71601 5.57101L7.22401 5.19401C7.42601 5.14401 7.42601 4.85601 7.22401 4.80601L5.71601 4.42901C5.68101 4.42018 5.64904 4.40204 5.62351 4.37651C5.59799 4.35098 5.57984 4.31902 5.57101 4.28401L5.19401 2.77601C5.14401 2.57401 4.85601 2.57401 4.80601 2.77601ZM19 17L18.6 18.6L17 19L18.6 19.4L19 21L19.4 19.4L21 19L19.4 18.6L19 17Z" stroke="#6A8EA9" stroke-width="1.5" stroke-miterlimit="10" stroke-linecap="round" stroke-linejoin="round"/>
</svg>
