<svg width="24" height="24" viewBox="0 0 24 24" fill="none" xmlns="http://www.w3.org/2000/svg">
<g clip-path="url(#clip0_190_2316)">
<path d="M12.96 6.49512H11.085V11.0701H6.51001V12.9451H11.085V17.5201H12.96V12.9451H17.535V11.0701H12.96V6.49512Z" fill="#6A8EA9"/>
<path d="M12 0.749947C8.9186 0.65688 5.92583 1.78842 3.67681 3.89688C1.42779 6.00534 0.105719 8.91895 0 11.9999C0.105719 15.0809 1.42779 17.9946 3.67681 20.103C5.92583 22.2115 8.9186 23.343 12 23.2499C15.0814 23.343 18.0742 22.2115 20.3232 20.103C22.5722 17.9946 23.8943 15.0809 24 11.9999C23.8943 8.91895 22.5722 6.00534 20.3232 3.89688C18.0742 1.78842 15.0814 0.65688 12 0.749947ZM12 21.3749C9.41576 21.4683 6.89972 20.5344 5.00226 18.7775C3.10481 17.0206 1.9804 14.5837 1.875 11.9999C1.9804 9.41617 3.10481 6.97929 5.00226 5.22239C6.89972 3.46549 9.41576 2.53158 12 2.62495C14.5842 2.53158 17.1003 3.46549 18.9977 5.22239C20.8952 6.97929 22.0196 9.41617 22.125 11.9999C22.0196 14.5837 20.8952 17.0206 18.9977 18.7775C17.1003 20.5344 14.5842 21.4683 12 21.3749Z" fill="#6A8EA9"/>
</g>
<defs>
<clipPath id="clip0_190_2316">
<rect width="24" height="24" fill="white"/>
</clipPath>
</defs>
</svg>
