<svg width="24" height="24" viewBox="0 0 24 24" fill="none" xmlns="http://www.w3.org/2000/svg">
<path d="M5.25006 3C5.11081 3.00007 4.97434 3.03891 4.85591 3.11216C4.73749 3.18542 4.6418 3.29019 4.57956 3.41475L1.57956 9.41475C1.51499 9.54375 1.489 9.68864 1.5047 9.83204C1.52039 9.97544 1.57711 10.1113 1.66806 10.2232L11.4181 22.2233C11.4884 22.3098 11.5771 22.3795 11.6778 22.4274C11.7785 22.4753 11.8886 22.5002 12.0001 22.5002C12.1116 22.5002 12.2216 22.4753 12.3223 22.4274C12.423 22.3795 12.5117 22.3098 12.5821 22.2233L22.3321 10.2232C22.423 10.1113 22.4797 9.97544 22.4954 9.83204C22.5111 9.68864 22.4851 9.54375 22.4206 9.41475L19.4206 3.41475C19.3583 3.29019 19.2626 3.18542 19.1442 3.11216C19.0258 3.03891 18.8893 3.00007 18.7501 3H5.25006ZM3.46356 9L5.71356 4.5H8.78931L7.66431 9H3.46356ZM3.82581 10.5H7.69881L10.1191 18.246L3.82581 10.5ZM9.27081 10.5H14.7301L12.0001 19.2352L9.27081 10.5ZM16.3013 10.5H20.1751L13.8818 18.246L16.3013 10.5ZM20.5366 9H16.3358L15.2108 4.5H18.2866L20.5366 9ZM14.7893 9H9.21081L10.3358 4.5H13.6643L14.7893 9Z" fill="#DB8081"/>
</svg>
