<svg width="40" height="41" viewBox="0 0 40 41" fill="none" xmlns="http://www.w3.org/2000/svg">
<path d="M33.225 11.7921C33.1537 11.7921 33.0851 11.7921 33.0137 11.7976C32.5802 11.8086 32.1603 11.8662 31.7542 11.9622C31.6801 11.9676 31.6061 11.9731 31.532 11.9759C31.3536 11.9841 31.1753 11.9896 30.9941 11.9896C28.0141 11.9896 25.3195 10.7691 23.385 8.80252C21.4889 6.87711 20.3199 4.23311 20.3199 1.32031V13.5091C20.309 13.6435 20.3035 13.7779 20.3035 13.915C20.3035 14.0521 20.309 14.1865 20.3199 14.3209C20.5257 17.3242 23.0283 19.6967 26.0851 19.6967H27.0263H39.4238H39.6076V18.1717C39.6076 14.6473 36.7511 11.7921 33.225 11.7921Z" fill="#D50000"/>
<path d="M39.8575 4.40539C39.8575 4.76793 39.8136 5.12223 39.7312 5.46005C39.2589 7.38535 37.5237 8.81353 35.4507 8.81353C33.3805 8.81353 31.6425 7.38535 31.1702 5.46005C31.1675 5.44357 31.162 5.4271 31.1593 5.40787C31.0824 5.08653 31.0439 4.75145 31.0439 4.40539C31.0439 2.37298 32.4195 0.66191 34.292 0.153806C34.3387 0.137327 34.3854 0.126342 34.4348 0.115356C34.7149 0.0494394 35.0059 0.00824086 35.3052 0.00274786C35.3546 1.35286e-06 35.4013 2.86145e-06 35.4507 2.86145e-06C37.8834 -0.00274364 39.8575 1.97199 39.8575 4.40539Z" fill="#FFD600"/>
<path d="M29.9374 9.95537C25.5235 9.95537 21.9446 6.38087 21.9446 1.97242V0C26.3585 0 29.9374 3.5745 29.9374 7.98295V9.95537Z" fill="#FB8C00"/>
<path d="M11.8993 6.8108C11.8993 6.88214 11.8993 6.95074 11.9048 7.02209C11.9157 7.45564 11.9733 7.87547 12.0693 8.28159C12.0748 8.35568 12.0803 8.42976 12.0831 8.50385C12.0913 8.68221 12.0968 8.86057 12.0968 9.04168C12.0968 12.0217 10.8762 14.7163 8.9097 16.6508C6.98429 18.5469 4.34029 19.7159 1.42749 19.7159H13.6163C13.7506 19.7269 13.885 19.7324 14.0222 19.7324C14.1593 19.7324 14.2937 19.7269 14.4281 19.7159C17.4314 19.5101 19.8039 17.0076 19.8039 13.9507V13.0095V0.612071V0.428223H18.2789C14.7545 0.428223 11.8993 3.28474 11.8993 6.8108Z" fill="#48B53F"/>
<path d="M4.51257 0.178711C4.87511 0.178711 5.22941 0.222643 5.56723 0.305013C7.49253 0.777264 8.92071 2.51251 8.92071 4.58548C8.92071 6.6557 7.49253 8.3937 5.56723 8.86595C5.55075 8.86869 5.53427 8.87418 5.51505 8.87692C5.19371 8.9538 4.85863 8.99224 4.51257 8.99224C2.48016 8.99224 0.769087 7.61667 0.260984 5.74414C0.244505 5.69746 0.233519 5.65079 0.222533 5.60137C0.156617 5.32131 0.115419 5.03027 0.109926 4.731C0.107179 4.68158 0.107181 4.6349 0.107181 4.58548C0.104434 2.15009 2.07642 0.178711 4.51257 0.178711Z" fill="#00B8D4"/>
<path d="M10.0625 10.0981C10.0625 14.5121 6.48805 18.091 2.0796 18.091H0.107178C0.107178 13.6771 3.68167 10.0981 8.09013 10.0981H10.0625Z" fill="#00D4A1"/>
<path d="M28.2081 33.2604C28.2081 33.1891 28.2081 33.1205 28.2026 33.0491C28.1916 32.6156 28.134 32.1957 28.038 31.7896C28.0325 31.7155 28.027 31.6415 28.0243 31.5674C28.0161 31.389 28.0106 31.2106 28.0106 31.0295C28.0106 28.0495 29.2311 25.3549 31.1977 23.4204C33.1231 21.5243 35.7671 20.3553 38.6799 20.3553H26.4911C26.3567 20.3444 26.2223 20.3389 26.0852 20.3389C25.948 20.3389 25.8136 20.3444 25.6792 20.3553C22.6759 20.5611 20.3035 23.0637 20.3035 26.1205V27.0617V39.4592V39.643H21.8284C25.3529 39.643 28.2081 36.7865 28.2081 33.2604Z" fill="#7C4DFF"/>
<path d="M35.5947 39.9283C35.2321 39.9283 34.8778 39.8844 34.54 39.802C32.6147 39.3297 31.1865 37.5945 31.1865 35.5215C31.1865 33.4485 32.6147 31.7133 34.54 31.241C34.5565 31.2383 34.573 31.2328 34.5922 31.2301C34.9135 31.1532 35.2486 31.1147 35.5947 31.1147C37.6271 31.1147 39.3381 32.4903 39.8463 34.3628C39.8627 34.4095 39.8737 34.4562 39.8847 34.5056C39.9506 34.7857 39.9918 35.0767 39.9973 35.376C40.0001 35.4254 40.0001 35.4721 40.0001 35.5215C40.0028 37.9569 38.0281 39.9283 35.5947 39.9283Z" fill="#0277BD"/>
<path d="M30.0447 30.009C30.0447 25.595 33.6192 22.0161 38.0276 22.0161H40C40 26.43 36.4256 30.009 32.0171 30.009H30.0447Z" fill="#3F51B5"/>
<path d="M6.63257 28.3301C6.70392 28.3301 6.77252 28.3301 6.84386 28.3246C7.27742 28.3136 7.69725 28.2559 8.10336 28.1597C8.17745 28.1542 8.25154 28.1487 8.32563 28.146C8.50399 28.1377 8.68235 28.1322 8.86346 28.1322C11.8435 28.1322 14.5381 29.3551 16.4726 31.3255C18.3687 33.2546 19.5377 35.9038 19.5377 38.8222V26.6098C19.5486 26.4751 19.5541 26.3405 19.5541 26.2031C19.5541 26.0657 19.5486 25.931 19.5377 25.7964C19.3319 22.7872 16.8293 20.4102 13.7725 20.4102H12.8313H0.433848H0.25V21.9381C0.25 25.4694 3.10652 28.3301 6.63257 28.3301Z" fill="#E91E63"/>
<path d="M0 35.7372C0 35.3747 0.0439322 35.0204 0.126302 34.6826C0.598553 32.7573 2.3338 31.3291 4.40677 31.3291C6.47973 31.3291 8.21498 32.7573 8.68723 34.6826C8.68998 34.6991 8.69547 34.7155 8.69822 34.7348C8.7751 35.0561 8.81353 35.3912 8.81353 35.7372C8.81353 37.7697 7.43796 39.4807 5.56543 39.9888C5.51875 40.0053 5.47208 40.0163 5.42266 40.0273C5.1426 40.0932 4.85156 40.1344 4.55229 40.1399C4.50286 40.1426 4.45619 40.1426 4.40677 40.1426C1.97138 40.1426 0 38.1706 0 35.7372Z" fill="#7C4DFF"/>
<path d="M9.91992 30.187C14.3338 30.187 17.9128 33.7615 17.9128 38.17V40.1424C13.4988 40.1424 9.91992 36.5679 9.91992 32.1594V30.187Z" fill="#E91EE1"/>
</svg>
