<svg width="16" height="16" viewBox="0 0 16 16" fill="none" xmlns="http://www.w3.org/2000/svg">
<g clip-path="url(#clip0_184_2297)">
<path d="M8.54744 13.9674C8.24509 13.6651 8.24509 13.1748 8.54744 12.8725L12.8719 8.54805C13.1742 8.2457 13.6644 8.2457 13.9668 8.54805L15.1945 9.77572C15.4968 10.0781 15.4968 10.5683 15.1945 10.8706L10.87 15.1951C10.5677 15.4974 10.0775 15.4974 9.77511 15.1951L8.54744 13.9674Z" stroke="white" stroke-width="0.516129" stroke-linecap="round" stroke-linejoin="round"/>
<path d="M0.258179 0.258057L11.0034 2.85174C11.2965 2.92247 11.5218 3.15688 11.5809 3.45249L12.564 8.36789C12.6148 8.62172 12.5353 8.88412 12.3523 9.06714L9.06726 12.3522C8.88424 12.5352 8.62184 12.6147 8.36801 12.5639L3.45261 11.5808C3.157 11.5217 2.9226 11.2964 2.85186 11.0033L0.258179 0.258057ZM0.258179 0.258057L6.13121 6.13109" stroke="white" stroke-width="0.516129" stroke-linecap="round" stroke-linejoin="round"/>
<path d="M7.22576 8.77402C8.08093 8.77402 8.77414 8.08081 8.77414 7.22563C8.77414 6.37046 8.08093 5.67725 7.22576 5.67725C6.37058 5.67725 5.67737 6.37046 5.67737 7.22563C5.67737 8.08081 6.37058 8.77402 7.22576 8.77402Z" stroke="white" stroke-width="0.516129" stroke-linecap="round" stroke-linejoin="round"/>
</g>
<defs>
<clipPath id="clip0_184_2297">
<rect width="16" height="16" fill="white"/>
</clipPath>
</defs>
</svg>
