<svg width="20" height="16" viewBox="0 0 20 16" fill="none" xmlns="http://www.w3.org/2000/svg">
<g clip-path="url(#clip0_184_2301)">
<path d="M17.7887 0.0844322C18.7781 -0.25671 19.8092 0.478437 19.8095 1.52491V13.9275C19.8095 14.9938 18.7426 15.7304 17.7455 15.3523L12.0208 13.1804V14.0174C12.0208 14.859 11.3386 15.5413 10.497 15.5413H4.90997C4.06843 15.5413 3.38616 14.859 3.38616 14.0174V11.3084H1.52381C0.682233 11.3084 0 10.6261 0 9.78461V5.29797C5.97438e-05 4.45645 0.68227 3.77416 1.52381 3.77416H7.08929L17.7887 0.0844322ZM4.14807 14.0174C4.14807 14.4382 4.48922 14.7794 4.90997 14.7794H10.497C10.9178 14.7794 11.2589 14.4382 11.2589 14.0174V12.8917L7.08334 11.3084H4.14807V14.0174ZM19.0476 1.52491C19.0473 1.00179 18.5318 0.634137 18.0372 0.804671L7.53422 4.4267V10.6641L11.7753 12.2734L18.0156 14.6402C18.5141 14.8293 19.0476 14.4606 19.0476 13.9275V1.52491ZM1.52381 4.53607C1.10306 4.53607 0.761966 4.87723 0.761905 5.29797V9.78461C0.761905 10.2053 1.10302 10.5465 1.52381 10.5465H6.77232V4.53607H1.52381Z" fill="white"/>
</g>
<defs>
<clipPath id="clip0_184_2301">
<rect width="19.8095" height="16" fill="white"/>
</clipPath>
</defs>
</svg>
